<mxfile host="app.diagrams.net" modified="2022-03-09T10:54:31.031Z" agent="5.0 (Windows NT 10.0; Win64; x64) AppleWebKit/537.36 (KHTML, like Gecko) Chrome/96.0.4664.45 Safari/537.36" etag="64Z47U06G_Dc7QcBrEYJ" version="16.5.6" type="github">
  <diagram id="AEkYbbPtGk_L0vC9MOVH" name="第 1 页">
    <mxGraphModel dx="1422" dy="1931" grid="1" gridSize="10" guides="1" tooltips="1" connect="1" arrows="1" fold="1" page="1" pageScale="1" pageWidth="827" pageHeight="1169" math="0" shadow="0">
      <root>
        <mxCell id="0" />
        <mxCell id="1" parent="0" />
        <mxCell id="gMyOnzurJYTI28C3glSG-3" value="" style="edgeStyle=orthogonalEdgeStyle;rounded=0;orthogonalLoop=1;jettySize=auto;html=1;" edge="1" parent="1" source="gMyOnzurJYTI28C3glSG-1" target="gMyOnzurJYTI28C3glSG-2">
          <mxGeometry relative="1" as="geometry" />
        </mxCell>
        <mxCell id="gMyOnzurJYTI28C3glSG-1" value="入口" style="ellipse;whiteSpace=wrap;html=1;" vertex="1" parent="1">
          <mxGeometry x="115" y="55" width="120" height="80" as="geometry" />
        </mxCell>
        <mxCell id="gMyOnzurJYTI28C3glSG-7" style="edgeStyle=orthogonalEdgeStyle;rounded=0;orthogonalLoop=1;jettySize=auto;html=1;entryX=0.1;entryY=0.5;entryDx=0;entryDy=0;entryPerimeter=0;" edge="1" parent="1" source="gMyOnzurJYTI28C3glSG-2" target="gMyOnzurJYTI28C3glSG-6">
          <mxGeometry relative="1" as="geometry" />
        </mxCell>
        <mxCell id="gMyOnzurJYTI28C3glSG-9" value="@Bean" style="edgeLabel;html=1;align=center;verticalAlign=middle;resizable=0;points=[];" vertex="1" connectable="0" parent="gMyOnzurJYTI28C3glSG-7">
          <mxGeometry x="0.2321" relative="1" as="geometry">
            <mxPoint as="offset" />
          </mxGeometry>
        </mxCell>
        <mxCell id="gMyOnzurJYTI28C3glSG-2" value="&lt;font style=&quot;font-size: 15px&quot;&gt;加载spring.factories文件中NacosConfigBootstrapConfiguration配置类&lt;/font&gt;" style="whiteSpace=wrap;html=1;fillColor=#f8cecc;strokeColor=#b85450;" vertex="1" parent="1">
          <mxGeometry x="40" y="170" width="270" height="60" as="geometry" />
        </mxCell>
        <mxCell id="gMyOnzurJYTI28C3glSG-6" value="" style="shape=curlyBracket;whiteSpace=wrap;html=1;rounded=1;" vertex="1" parent="1">
          <mxGeometry x="440" y="60" width="20" height="280" as="geometry" />
        </mxCell>
        <mxCell id="gMyOnzurJYTI28C3glSG-10" value="&lt;font style=&quot;font-size: 15px&quot;&gt;NacosConfigProperties&lt;/font&gt;" style="rounded=0;whiteSpace=wrap;html=1;fillColor=#f8cecc;strokeColor=#b85450;" vertex="1" parent="1">
          <mxGeometry x="465" y="80" width="170" height="25" as="geometry" />
        </mxCell>
        <mxCell id="gMyOnzurJYTI28C3glSG-21" style="edgeStyle=orthogonalEdgeStyle;rounded=0;orthogonalLoop=1;jettySize=auto;html=1;entryX=0;entryY=0.5;entryDx=0;entryDy=0;fontSize=13;" edge="1" parent="1" source="gMyOnzurJYTI28C3glSG-12" target="gMyOnzurJYTI28C3glSG-17">
          <mxGeometry relative="1" as="geometry">
            <Array as="points">
              <mxPoint x="700" y="200" />
              <mxPoint x="700" y="-375" />
            </Array>
          </mxGeometry>
        </mxCell>
        <mxCell id="gMyOnzurJYTI28C3glSG-22" value="初始化" style="edgeLabel;html=1;align=center;verticalAlign=middle;resizable=0;points=[];fontSize=13;" vertex="1" connectable="0" parent="gMyOnzurJYTI28C3glSG-21">
          <mxGeometry x="-0.1568" y="-2" relative="1" as="geometry">
            <mxPoint as="offset" />
          </mxGeometry>
        </mxCell>
        <mxCell id="gMyOnzurJYTI28C3glSG-12" value="&lt;font style=&quot;font-size: 15px&quot;&gt;NacosConfigManager&lt;/font&gt;" style="rounded=0;whiteSpace=wrap;html=1;fillColor=#f8cecc;strokeColor=#b85450;" vertex="1" parent="1">
          <mxGeometry x="460" y="185" width="170" height="30" as="geometry" />
        </mxCell>
        <mxCell id="gMyOnzurJYTI28C3glSG-13" value="&lt;font style=&quot;font-size: 15px&quot;&gt;NacosPropertySourceLocator&lt;/font&gt;" style="rounded=0;whiteSpace=wrap;html=1;fillColor=#f8cecc;strokeColor=#b85450;" vertex="1" parent="1">
          <mxGeometry x="460" y="320" width="220" height="30" as="geometry" />
        </mxCell>
        <mxCell id="gMyOnzurJYTI28C3glSG-14" value="&lt;font style=&quot;font-size: 15px&quot;&gt;加载nacos配置中心的配置信息&lt;/font&gt;" style="text;html=1;strokeColor=none;fillColor=none;align=center;verticalAlign=middle;whiteSpace=wrap;rounded=0;" vertex="1" parent="1">
          <mxGeometry x="460" y="280" width="210" height="30" as="geometry" />
        </mxCell>
        <mxCell id="gMyOnzurJYTI28C3glSG-15" value="&lt;font style=&quot;font-size: 15px&quot;&gt;持有NacosConfigProperties&lt;br&gt;和ConfigService&lt;/font&gt;" style="text;html=1;strokeColor=none;fillColor=none;align=center;verticalAlign=middle;whiteSpace=wrap;rounded=0;" vertex="1" parent="1">
          <mxGeometry x="420" y="150" width="260" height="30" as="geometry" />
        </mxCell>
        <mxCell id="gMyOnzurJYTI28C3glSG-16" value="&lt;font style=&quot;font-size: 15px&quot;&gt;属性配置类&lt;/font&gt;" style="text;html=1;strokeColor=none;fillColor=none;align=center;verticalAlign=middle;whiteSpace=wrap;rounded=0;" vertex="1" parent="1">
          <mxGeometry x="465" y="40" width="160" height="30" as="geometry" />
        </mxCell>
        <mxCell id="gMyOnzurJYTI28C3glSG-20" value="" style="edgeStyle=orthogonalEdgeStyle;rounded=0;orthogonalLoop=1;jettySize=auto;html=1;fontSize=13;" edge="1" parent="1" source="gMyOnzurJYTI28C3glSG-17" target="gMyOnzurJYTI28C3glSG-19">
          <mxGeometry relative="1" as="geometry" />
        </mxCell>
        <mxCell id="gMyOnzurJYTI28C3glSG-17" value="&lt;font style=&quot;font-size: 15px&quot;&gt;NacosConfigManager.createConfigService&lt;/font&gt;" style="whiteSpace=wrap;html=1;rounded=0;" vertex="1" parent="1">
          <mxGeometry x="900" y="-390" width="380" height="30" as="geometry" />
        </mxCell>
        <mxCell id="gMyOnzurJYTI28C3glSG-24" value="" style="edgeStyle=orthogonalEdgeStyle;rounded=0;orthogonalLoop=1;jettySize=auto;html=1;fontSize=13;" edge="1" parent="1" source="gMyOnzurJYTI28C3glSG-19" target="gMyOnzurJYTI28C3glSG-23">
          <mxGeometry relative="1" as="geometry" />
        </mxCell>
        <mxCell id="gMyOnzurJYTI28C3glSG-25" value="&lt;font style=&quot;font-size: 15px&quot;&gt;反射调用NacosConfigService构造器&lt;/font&gt;" style="edgeLabel;html=1;align=center;verticalAlign=middle;resizable=0;points=[];fontSize=12;" vertex="1" connectable="0" parent="gMyOnzurJYTI28C3glSG-24">
          <mxGeometry x="-0.2286" y="-2" relative="1" as="geometry">
            <mxPoint as="offset" />
          </mxGeometry>
        </mxCell>
        <mxCell id="gMyOnzurJYTI28C3glSG-19" value="&lt;font style=&quot;font-size: 15px&quot;&gt;ConfigFactory.createConfigService&lt;/font&gt;" style="whiteSpace=wrap;html=1;rounded=0;" vertex="1" parent="1">
          <mxGeometry x="907.5" y="-320" width="365" height="30" as="geometry" />
        </mxCell>
        <mxCell id="gMyOnzurJYTI28C3glSG-27" value="" style="edgeStyle=orthogonalEdgeStyle;rounded=0;orthogonalLoop=1;jettySize=auto;html=1;fontSize=12;fontColor=#000000;" edge="1" parent="1" source="gMyOnzurJYTI28C3glSG-23" target="gMyOnzurJYTI28C3glSG-26">
          <mxGeometry relative="1" as="geometry" />
        </mxCell>
        <mxCell id="gMyOnzurJYTI28C3glSG-46" value="&lt;font style=&quot;font-size: 15px&quot;&gt;客户端工作类&lt;/font&gt;" style="edgeLabel;html=1;align=center;verticalAlign=middle;resizable=0;points=[];fontSize=18;fontColor=#000000;" vertex="1" connectable="0" parent="gMyOnzurJYTI28C3glSG-27">
          <mxGeometry x="0.3849" relative="1" as="geometry">
            <mxPoint as="offset" />
          </mxGeometry>
        </mxCell>
        <mxCell id="gMyOnzurJYTI28C3glSG-29" value="" style="edgeStyle=orthogonalEdgeStyle;rounded=0;orthogonalLoop=1;jettySize=auto;html=1;fontSize=18;fontColor=#000000;" edge="1" parent="1" source="gMyOnzurJYTI28C3glSG-23" target="gMyOnzurJYTI28C3glSG-28">
          <mxGeometry relative="1" as="geometry" />
        </mxCell>
        <mxCell id="gMyOnzurJYTI28C3glSG-40" value="&lt;font style=&quot;font-size: 15px&quot;&gt;向nacos server发起请求的代理&lt;/font&gt;" style="edgeLabel;html=1;align=center;verticalAlign=middle;resizable=0;points=[];fontSize=12;fontColor=#000000;" vertex="1" connectable="0" parent="gMyOnzurJYTI28C3glSG-29">
          <mxGeometry x="0.2316" y="1" relative="1" as="geometry">
            <mxPoint x="-58" y="4" as="offset" />
          </mxGeometry>
        </mxCell>
        <mxCell id="gMyOnzurJYTI28C3glSG-23" value="&lt;pre style=&quot;font-family: &amp;#34;consolas&amp;#34;&quot;&gt;&lt;span style=&quot;background-color: rgb(255 , 255 , 255)&quot;&gt;&lt;font style=&quot;font-size: 15px&quot;&gt;NacosConfigService(Properties properties)&lt;/font&gt;&lt;/span&gt;&lt;/pre&gt;" style="whiteSpace=wrap;html=1;rounded=0;" vertex="1" parent="1">
          <mxGeometry x="880" y="-230" width="420" height="30" as="geometry" />
        </mxCell>
        <mxCell id="gMyOnzurJYTI28C3glSG-43" value="" style="edgeStyle=orthogonalEdgeStyle;rounded=0;orthogonalLoop=1;jettySize=auto;html=1;fontSize=12;fontColor=#000000;" edge="1" parent="1" source="gMyOnzurJYTI28C3glSG-26" target="gMyOnzurJYTI28C3glSG-42">
          <mxGeometry relative="1" as="geometry" />
        </mxCell>
        <mxCell id="gMyOnzurJYTI28C3glSG-45" value="&lt;font style=&quot;font-size: 16px&quot;&gt;定时任务10分钟执行一次&lt;/font&gt;" style="edgeLabel;html=1;align=center;verticalAlign=middle;resizable=0;points=[];fontSize=18;fontColor=#000000;" vertex="1" connectable="0" parent="gMyOnzurJYTI28C3glSG-43">
          <mxGeometry x="-0.28" relative="1" as="geometry">
            <mxPoint as="offset" />
          </mxGeometry>
        </mxCell>
        <mxCell id="gMyOnzurJYTI28C3glSG-26" value="&lt;pre style=&quot;font-family: &amp;#34;consolas&amp;#34;&quot;&gt;&lt;font style=&quot;font-size: 15px&quot;&gt;ClientWorker&lt;/font&gt;&lt;/pre&gt;" style="whiteSpace=wrap;html=1;rounded=0;fillColor=#f8cecc;strokeColor=#b85450;" vertex="1" parent="1">
          <mxGeometry x="1200" width="139" height="30" as="geometry" />
        </mxCell>
        <mxCell id="gMyOnzurJYTI28C3glSG-28" value="&lt;pre style=&quot;font-family: &amp;#34;consolas&amp;#34;&quot;&gt;&lt;font style=&quot;background-color: rgb(255 , 255 , 255) ; font-size: 15px&quot;&gt;MetricsHttpAgent&lt;/font&gt;&lt;/pre&gt;" style="whiteSpace=wrap;html=1;rounded=0;" vertex="1" parent="1">
          <mxGeometry x="790" width="170" height="30" as="geometry" />
        </mxCell>
        <mxCell id="gMyOnzurJYTI28C3glSG-48" value="" style="edgeStyle=orthogonalEdgeStyle;rounded=0;orthogonalLoop=1;jettySize=auto;html=1;fontSize=18;fontColor=#000000;" edge="1" parent="1" source="gMyOnzurJYTI28C3glSG-42" target="gMyOnzurJYTI28C3glSG-47">
          <mxGeometry relative="1" as="geometry" />
        </mxCell>
        <mxCell id="gMyOnzurJYTI28C3glSG-42" value="&lt;pre style=&quot;font-family: &amp;#34;consolas&amp;#34;&quot;&gt;&lt;span style=&quot;background-color: rgb(255 , 255 , 255)&quot;&gt;&lt;font style=&quot;font-size: 15px&quot;&gt;checkConfigInfo()&lt;/font&gt;&lt;/span&gt;&lt;/pre&gt;" style="whiteSpace=wrap;html=1;rounded=0;" vertex="1" parent="1">
          <mxGeometry x="1164" y="135" width="211" height="45" as="geometry" />
        </mxCell>
        <mxCell id="gMyOnzurJYTI28C3glSG-52" value="" style="edgeStyle=orthogonalEdgeStyle;rounded=0;orthogonalLoop=1;jettySize=auto;html=1;fontSize=18;fontColor=#000000;" edge="1" parent="1" source="gMyOnzurJYTI28C3glSG-47" target="gMyOnzurJYTI28C3glSG-51">
          <mxGeometry relative="1" as="geometry">
            <Array as="points">
              <mxPoint x="1270" y="380" />
              <mxPoint x="1270" y="380" />
            </Array>
          </mxGeometry>
        </mxCell>
        <mxCell id="gMyOnzurJYTI28C3glSG-53" value="&lt;font style=&quot;font-size: 15px&quot;&gt;客户端长轮询&lt;/font&gt;" style="edgeLabel;html=1;align=center;verticalAlign=middle;resizable=0;points=[];fontSize=18;fontColor=#000000;" vertex="1" connectable="0" parent="gMyOnzurJYTI28C3glSG-52">
          <mxGeometry x="-0.2118" relative="1" as="geometry">
            <mxPoint as="offset" />
          </mxGeometry>
        </mxCell>
        <mxCell id="gMyOnzurJYTI28C3glSG-47" value="&lt;pre style=&quot;font-family: &amp;#34;consolas&amp;#34; ; font-size: 15px&quot;&gt;&lt;span style=&quot;background-color: rgb(255 , 255 , 255)&quot;&gt;&lt;font style=&quot;font-size: 15px&quot;&gt;executorService.execute(new &lt;/font&gt;&lt;/span&gt;&lt;/pre&gt;&lt;pre style=&quot;font-family: &amp;#34;consolas&amp;#34; ; font-size: 15px&quot;&gt;&lt;font style=&quot;font-size: 15px&quot;&gt;LongPollingRunnable(i))&lt;/font&gt;&lt;/pre&gt;" style="whiteSpace=wrap;html=1;rounded=0;" vertex="1" parent="1">
          <mxGeometry x="1074.5" y="242.5" width="390" height="77.5" as="geometry" />
        </mxCell>
        <mxCell id="gMyOnzurJYTI28C3glSG-49" value="&lt;font style=&quot;font-size: 15px&quot;&gt;两个线程池：&lt;br&gt;1、只有一个线程的线程池，用来执行定时任务，每10分钟执行一次checkConfigInfo()&lt;br&gt;&amp;nbsp; 2、线程数等于处理器个数的线程池，用来执行ClientWorker.LongPollingRunnable.run&lt;/font&gt;" style="text;html=1;strokeColor=none;fillColor=none;align=center;verticalAlign=middle;whiteSpace=wrap;rounded=0;labelBackgroundColor=none;fontSize=18;fontColor=#000000;" vertex="1" parent="1">
          <mxGeometry x="1380" y="-60" width="380" height="160" as="geometry" />
        </mxCell>
        <mxCell id="gMyOnzurJYTI28C3glSG-50" value="&lt;font style=&quot;font-size: 15px&quot;&gt;CacheMap中缓存需要刷新的配置，将Map中的数量以3000个分一个组，分别创建一个LongPollingRunnable用来监听配置更新&lt;/font&gt;" style="text;html=1;strokeColor=none;fillColor=none;align=center;verticalAlign=middle;whiteSpace=wrap;rounded=0;labelBackgroundColor=none;fontSize=18;fontColor=#000000;" vertex="1" parent="1">
          <mxGeometry x="1412.5" y="112.5" width="315" height="90" as="geometry" />
        </mxCell>
        <mxCell id="gMyOnzurJYTI28C3glSG-55" value="" style="edgeStyle=orthogonalEdgeStyle;rounded=0;orthogonalLoop=1;jettySize=auto;html=1;fontSize=18;fontColor=#000000;" edge="1" parent="1" source="gMyOnzurJYTI28C3glSG-51" target="gMyOnzurJYTI28C3glSG-54">
          <mxGeometry relative="1" as="geometry">
            <Array as="points">
              <mxPoint x="1270" y="493" />
              <mxPoint x="1270" y="493" />
            </Array>
          </mxGeometry>
        </mxCell>
        <mxCell id="gMyOnzurJYTI28C3glSG-56" value="&lt;font style=&quot;font-size: 15px&quot;&gt;检查本地的配置&lt;/font&gt;" style="edgeLabel;html=1;align=center;verticalAlign=middle;resizable=0;points=[];fontSize=18;fontColor=#000000;" vertex="1" connectable="0" parent="gMyOnzurJYTI28C3glSG-55">
          <mxGeometry x="-0.1798" y="-3" relative="1" as="geometry">
            <mxPoint as="offset" />
          </mxGeometry>
        </mxCell>
        <mxCell id="gMyOnzurJYTI28C3glSG-51" value="&lt;pre style=&quot;font-family: &amp;#34;consolas&amp;#34;&quot;&gt;&lt;font style=&quot;font-size: 15px&quot;&gt;LongPollingRunnable.run&lt;/font&gt;&lt;/pre&gt;" style="whiteSpace=wrap;html=1;rounded=0;" vertex="1" parent="1">
          <mxGeometry x="1134.5" y="380" width="270" height="51.25" as="geometry" />
        </mxCell>
        <mxCell id="gMyOnzurJYTI28C3glSG-58" value="" style="edgeStyle=orthogonalEdgeStyle;rounded=0;orthogonalLoop=1;jettySize=auto;html=1;fontSize=18;fontColor=#000000;" edge="1" parent="1" source="gMyOnzurJYTI28C3glSG-54" target="gMyOnzurJYTI28C3glSG-57">
          <mxGeometry relative="1" as="geometry" />
        </mxCell>
        <mxCell id="gMyOnzurJYTI28C3glSG-61" value="&lt;font style=&quot;font-size: 15px&quot;&gt;向Nacos Server发出一个长连接30s超时&lt;br&gt;返回Server有更新的dataIds&lt;/font&gt;" style="edgeLabel;html=1;align=center;verticalAlign=middle;resizable=0;points=[];fontSize=18;fontColor=#000000;" vertex="1" connectable="0" parent="gMyOnzurJYTI28C3glSG-58">
          <mxGeometry x="0.168" y="1" relative="1" as="geometry">
            <mxPoint x="6" y="-6" as="offset" />
          </mxGeometry>
        </mxCell>
        <mxCell id="gMyOnzurJYTI28C3glSG-54" value="&lt;pre style=&quot;font-family: &amp;#34;consolas&amp;#34;&quot;&gt;&lt;span style=&quot;background-color: rgb(255 , 255 , 255)&quot;&gt;&lt;font style=&quot;font-size: 15px&quot;&gt;checkLocalConfig(cacheData)&lt;/font&gt;&lt;/span&gt;&lt;/pre&gt;" style="whiteSpace=wrap;html=1;rounded=0;" vertex="1" parent="1">
          <mxGeometry x="1133" y="510" width="279.5" height="60" as="geometry" />
        </mxCell>
        <mxCell id="gMyOnzurJYTI28C3glSG-63" value="" style="edgeStyle=orthogonalEdgeStyle;rounded=0;orthogonalLoop=1;jettySize=auto;html=1;fontSize=15;fontColor=#000000;" edge="1" parent="1" source="gMyOnzurJYTI28C3glSG-57" target="gMyOnzurJYTI28C3glSG-62">
          <mxGeometry relative="1" as="geometry" />
        </mxCell>
        <mxCell id="gMyOnzurJYTI28C3glSG-64" value="根据变化的dataId调用nacos server获取配置信息，&lt;br&gt;并更新本地快照" style="edgeLabel;html=1;align=center;verticalAlign=middle;resizable=0;points=[];fontSize=15;fontColor=#000000;" vertex="1" connectable="0" parent="gMyOnzurJYTI28C3glSG-63">
          <mxGeometry x="0.34" y="-1" relative="1" as="geometry">
            <mxPoint x="1" y="-20" as="offset" />
          </mxGeometry>
        </mxCell>
        <mxCell id="gMyOnzurJYTI28C3glSG-57" value="&lt;p style=&quot;line-height: 0&quot;&gt;&lt;/p&gt;&lt;pre style=&quot;font-family: &amp;#34;consolas&amp;#34; ; font-size: 15px&quot;&gt;&lt;span style=&quot;background-color: rgb(255 , 255 , 255)&quot;&gt;&lt;font style=&quot;font-size: 15px&quot;&gt;checkUpdateDataIds(cacheDatas&lt;/font&gt;&lt;/span&gt;&lt;/pre&gt;&lt;pre style=&quot;font-family: &amp;#34;consolas&amp;#34; ; font-size: 15px&quot;&gt;&lt;span style=&quot;background-color: rgb(255 , 255 , 255)&quot;&gt;&lt;font style=&quot;font-size: 15px&quot;&gt;,inInitializingCacheList)&lt;/font&gt;&lt;/span&gt;&lt;/pre&gt;&lt;p&gt;&lt;/p&gt;" style="whiteSpace=wrap;html=1;rounded=0;align=center;spacing=0;" vertex="1" parent="1">
          <mxGeometry x="1114.5" y="700" width="310" height="60" as="geometry" />
        </mxCell>
        <mxCell id="gMyOnzurJYTI28C3glSG-66" value="" style="edgeStyle=orthogonalEdgeStyle;rounded=0;orthogonalLoop=1;jettySize=auto;html=1;fontSize=15;fontColor=#000000;" edge="1" parent="1" source="gMyOnzurJYTI28C3glSG-62" target="gMyOnzurJYTI28C3glSG-65">
          <mxGeometry relative="1" as="geometry" />
        </mxCell>
        <mxCell id="gMyOnzurJYTI28C3glSG-67" value="对有变化的配置调用对应的监听器处理" style="edgeLabel;html=1;align=center;verticalAlign=middle;resizable=0;points=[];fontSize=15;fontColor=#000000;" vertex="1" connectable="0" parent="gMyOnzurJYTI28C3glSG-66">
          <mxGeometry x="-0.3" y="-2" relative="1" as="geometry">
            <mxPoint x="2" y="12" as="offset" />
          </mxGeometry>
        </mxCell>
        <mxCell id="gMyOnzurJYTI28C3glSG-62" value="&lt;span style=&quot;color: rgb(51 , 51 , 51) ; font-family: &amp;#34;open sans&amp;#34; , &amp;#34;clear sans&amp;#34; , &amp;#34;helvetica neue&amp;#34; , &amp;#34;helvetica&amp;#34; , &amp;#34;arial&amp;#34; , &amp;#34;segoe ui emoji&amp;#34; , sans-serif ; font-size: 16px ; background-color: rgb(255 , 255 , 255)&quot;&gt;getServerConfig(dataId, group, tenant, 3000L)&lt;/span&gt;" style="whiteSpace=wrap;html=1;rounded=0;spacing=0;" vertex="1" parent="1">
          <mxGeometry x="1092.5" y="850" width="360.5" height="40" as="geometry" />
        </mxCell>
        <mxCell id="gMyOnzurJYTI28C3glSG-69" value="" style="edgeStyle=orthogonalEdgeStyle;rounded=0;orthogonalLoop=1;jettySize=auto;html=1;fontSize=15;fontColor=#000000;" edge="1" parent="1" source="gMyOnzurJYTI28C3glSG-65" target="gMyOnzurJYTI28C3glSG-68">
          <mxGeometry relative="1" as="geometry" />
        </mxCell>
        <mxCell id="gMyOnzurJYTI28C3glSG-70" value="继续轮询" style="edgeLabel;html=1;align=center;verticalAlign=middle;resizable=0;points=[];fontSize=15;fontColor=#000000;" vertex="1" connectable="0" parent="gMyOnzurJYTI28C3glSG-69">
          <mxGeometry x="0.1821" relative="1" as="geometry">
            <mxPoint as="offset" />
          </mxGeometry>
        </mxCell>
        <mxCell id="gMyOnzurJYTI28C3glSG-72" value="" style="edgeStyle=orthogonalEdgeStyle;rounded=0;orthogonalLoop=1;jettySize=auto;html=1;fontSize=15;fontColor=#000000;" edge="1" parent="1" source="gMyOnzurJYTI28C3glSG-65" target="gMyOnzurJYTI28C3glSG-71">
          <mxGeometry relative="1" as="geometry" />
        </mxCell>
        <mxCell id="gMyOnzurJYTI28C3glSG-65" value="&lt;font style=&quot;font-size: 15px&quot;&gt;cacheData.checkListenerMd5()&lt;/font&gt;" style="whiteSpace=wrap;html=1;rounded=0;spacing=0;" vertex="1" parent="1">
          <mxGeometry x="1142.5" y="990" width="270" height="40" as="geometry" />
        </mxCell>
        <mxCell id="gMyOnzurJYTI28C3glSG-68" value="executorService.execute(this)" style="whiteSpace=wrap;html=1;rounded=0;spacing=0;fontSize=15;" vertex="1" parent="1">
          <mxGeometry x="1600" y="990" width="207.25" height="40" as="geometry" />
        </mxCell>
        <mxCell id="gMyOnzurJYTI28C3glSG-74" value="" style="edgeStyle=orthogonalEdgeStyle;rounded=0;orthogonalLoop=1;jettySize=auto;html=1;fontSize=15;fontColor=#000000;" edge="1" parent="1" source="gMyOnzurJYTI28C3glSG-71" target="gMyOnzurJYTI28C3glSG-73">
          <mxGeometry relative="1" as="geometry" />
        </mxCell>
        <mxCell id="gMyOnzurJYTI28C3glSG-75" value="开启一个线程" style="edgeLabel;html=1;align=center;verticalAlign=middle;resizable=0;points=[];fontSize=15;fontColor=#000000;" vertex="1" connectable="0" parent="gMyOnzurJYTI28C3glSG-74">
          <mxGeometry x="0.3077" y="3" relative="1" as="geometry">
            <mxPoint as="offset" />
          </mxGeometry>
        </mxCell>
        <mxCell id="gMyOnzurJYTI28C3glSG-71" value="&lt;p class=&quot;md-end-block md-p md-focus&quot; style=&quot;box-sizing: border-box ; line-height: inherit ; margin: 0.8em 0px ; position: relative ; color: rgb(51 , 51 , 51) ; font-family: &amp;#34;open sans&amp;#34; , &amp;#34;clear sans&amp;#34; , &amp;#34;helvetica neue&amp;#34; , &amp;#34;helvetica&amp;#34; , &amp;#34;arial&amp;#34; , &amp;#34;segoe ui emoji&amp;#34; , sans-serif&quot;&gt;&lt;font style=&quot;font-size: 15px&quot;&gt;CacheData#safeNotifyListener&lt;/font&gt;&lt;/p&gt;" style="whiteSpace=wrap;html=1;rounded=0;spacing=0;" vertex="1" parent="1">
          <mxGeometry x="1158.18" y="1080" width="238.63" height="40" as="geometry" />
        </mxCell>
        <mxCell id="gMyOnzurJYTI28C3glSG-77" value="" style="edgeStyle=orthogonalEdgeStyle;rounded=0;orthogonalLoop=1;jettySize=auto;html=1;fontSize=15;fontColor=#000000;" edge="1" parent="1" source="gMyOnzurJYTI28C3glSG-73" target="gMyOnzurJYTI28C3glSG-76">
          <mxGeometry relative="1" as="geometry" />
        </mxCell>
        <mxCell id="gMyOnzurJYTI28C3glSG-73" value="&lt;span style=&quot;color: rgb(51 , 51 , 51) ; font-family: &amp;#34;open sans&amp;#34; , &amp;#34;clear sans&amp;#34; , &amp;#34;helvetica neue&amp;#34; , &amp;#34;helvetica&amp;#34; , &amp;#34;arial&amp;#34; , &amp;#34;segoe ui emoji&amp;#34; , sans-serif ; font-size: 16px ; background-color: rgb(255 , 255 , 255)&quot;&gt;Runnable#run&lt;/span&gt;" style="whiteSpace=wrap;html=1;rounded=0;spacing=0;" vertex="1" parent="1">
          <mxGeometry x="1217.5" y="1190" width="120" height="40" as="geometry" />
        </mxCell>
        <mxCell id="gMyOnzurJYTI28C3glSG-79" value="" style="edgeStyle=orthogonalEdgeStyle;rounded=0;orthogonalLoop=1;jettySize=auto;html=1;fontSize=15;fontColor=#000000;" edge="1" parent="1" source="gMyOnzurJYTI28C3glSG-76" target="gMyOnzurJYTI28C3glSG-78">
          <mxGeometry relative="1" as="geometry" />
        </mxCell>
        <mxCell id="gMyOnzurJYTI28C3glSG-76" value="&lt;font style=&quot;font-size: 15px&quot;&gt;listener.receiveConfigInfo(contentTmp)&lt;/font&gt;" style="whiteSpace=wrap;html=1;rounded=0;spacing=0;" vertex="1" parent="1">
          <mxGeometry x="1143.75" y="1280" width="267.5" height="40" as="geometry" />
        </mxCell>
        <mxCell id="gMyOnzurJYTI28C3glSG-78" value="AbstractSharedListener#innerReceive" style="whiteSpace=wrap;html=1;rounded=0;spacing=0;fontSize=15;" vertex="1" parent="1">
          <mxGeometry x="1122.5" y="1360" width="310" height="40" as="geometry" />
        </mxCell>
      </root>
    </mxGraphModel>
  </diagram>
</mxfile>
